<mxfile host="app.diagrams.net" modified="2020-12-05T15:10:28.768Z" agent="5.0 (Windows NT 10.0; Win64; x64) AppleWebKit/537.36 (KHTML, like Gecko) Chrome/86.0.4240.75 Safari/537.36" etag="FNcDeyLBYCFIC3O3RNYC" version="13.10.4" type="github">
  <diagram id="KrMoc4RAl71UuMp6jbE2" name="Page-1">
    <mxGraphModel dx="2062" dy="1123" grid="1" gridSize="10" guides="1" tooltips="1" connect="1" arrows="1" fold="1" page="1" pageScale="1" pageWidth="827" pageHeight="1169" math="0" shadow="0">
      <root>
        <mxCell id="0" />
        <mxCell id="1" parent="0" />
        <mxCell id="fkCTf-7TU1Zdt-uKhhQB-1" value="" style="rounded=0;whiteSpace=wrap;html=1;fillColor=#dae8fc;strokeColor=#6c8ebf;" vertex="1" parent="1">
          <mxGeometry x="50" y="230" width="615" height="40" as="geometry" />
        </mxCell>
        <mxCell id="fkCTf-7TU1Zdt-uKhhQB-7" value="" style="edgeStyle=orthogonalEdgeStyle;rounded=0;orthogonalLoop=1;jettySize=auto;html=1;" edge="1" parent="1" source="fkCTf-7TU1Zdt-uKhhQB-2" target="fkCTf-7TU1Zdt-uKhhQB-3">
          <mxGeometry relative="1" as="geometry" />
        </mxCell>
        <mxCell id="fkCTf-7TU1Zdt-uKhhQB-2" value="" style="rounded=1;whiteSpace=wrap;html=1;align=center;fillColor=#d5e8d4;strokeColor=#82b366;" vertex="1" parent="1">
          <mxGeometry x="50" y="290" width="100" height="80" as="geometry" />
        </mxCell>
        <mxCell id="fkCTf-7TU1Zdt-uKhhQB-8" value="" style="edgeStyle=orthogonalEdgeStyle;rounded=0;orthogonalLoop=1;jettySize=auto;html=1;" edge="1" parent="1" source="fkCTf-7TU1Zdt-uKhhQB-3" target="fkCTf-7TU1Zdt-uKhhQB-4">
          <mxGeometry relative="1" as="geometry" />
        </mxCell>
        <mxCell id="fkCTf-7TU1Zdt-uKhhQB-3" value="" style="rounded=1;whiteSpace=wrap;html=1;fillColor=#d5e8d4;strokeColor=#82b366;" vertex="1" parent="1">
          <mxGeometry x="210" y="290" width="100" height="80" as="geometry" />
        </mxCell>
        <mxCell id="fkCTf-7TU1Zdt-uKhhQB-9" value="" style="edgeStyle=orthogonalEdgeStyle;rounded=0;orthogonalLoop=1;jettySize=auto;html=1;" edge="1" parent="1" source="fkCTf-7TU1Zdt-uKhhQB-4" target="fkCTf-7TU1Zdt-uKhhQB-5">
          <mxGeometry relative="1" as="geometry" />
        </mxCell>
        <mxCell id="fkCTf-7TU1Zdt-uKhhQB-12" style="edgeStyle=orthogonalEdgeStyle;rounded=0;orthogonalLoop=1;jettySize=auto;html=1;exitX=0.5;exitY=1;exitDx=0;exitDy=0;entryX=0;entryY=0.5;entryDx=0;entryDy=0;" edge="1" parent="1" source="fkCTf-7TU1Zdt-uKhhQB-4" target="fkCTf-7TU1Zdt-uKhhQB-11">
          <mxGeometry relative="1" as="geometry" />
        </mxCell>
        <mxCell id="fkCTf-7TU1Zdt-uKhhQB-23" value="动作4" style="edgeLabel;html=1;align=center;verticalAlign=middle;resizable=0;points=[];" vertex="1" connectable="0" parent="fkCTf-7TU1Zdt-uKhhQB-12">
          <mxGeometry x="-0.2286" relative="1" as="geometry">
            <mxPoint as="offset" />
          </mxGeometry>
        </mxCell>
        <mxCell id="fkCTf-7TU1Zdt-uKhhQB-4" value="" style="rounded=1;whiteSpace=wrap;html=1;fillColor=#d5e8d4;strokeColor=#82b366;" vertex="1" parent="1">
          <mxGeometry x="380" y="290" width="100" height="80" as="geometry" />
        </mxCell>
        <mxCell id="fkCTf-7TU1Zdt-uKhhQB-5" value="" style="rounded=1;whiteSpace=wrap;html=1;fillColor=#d5e8d4;strokeColor=#82b366;" vertex="1" parent="1">
          <mxGeometry x="540" y="290" width="100" height="80" as="geometry" />
        </mxCell>
        <mxCell id="fkCTf-7TU1Zdt-uKhhQB-11" value="" style="rounded=1;whiteSpace=wrap;html=1;fillColor=#d5e8d4;strokeColor=#82b366;" vertex="1" parent="1">
          <mxGeometry x="550" y="410" width="100" height="80" as="geometry" />
        </mxCell>
        <mxCell id="fkCTf-7TU1Zdt-uKhhQB-28" value="状态上下文" style="text;html=1;strokeColor=none;fillColor=none;align=center;verticalAlign=middle;whiteSpace=wrap;rounded=0;" vertex="1" parent="1">
          <mxGeometry x="307.5" y="190" width="100" height="30" as="geometry" />
        </mxCell>
        <mxCell id="fkCTf-7TU1Zdt-uKhhQB-30" value="当前状态" style="rounded=1;whiteSpace=wrap;html=1;" vertex="1" parent="1">
          <mxGeometry x="230" y="235" width="80" height="30" as="geometry" />
        </mxCell>
        <mxCell id="fkCTf-7TU1Zdt-uKhhQB-31" value="其它数据" style="rounded=1;whiteSpace=wrap;html=1;" vertex="1" parent="1">
          <mxGeometry x="397.5" y="235" width="80" height="30" as="geometry" />
        </mxCell>
        <mxCell id="fkCTf-7TU1Zdt-uKhhQB-34" value="状态1" style="text;html=1;strokeColor=none;fillColor=none;align=center;verticalAlign=middle;whiteSpace=wrap;rounded=0;" vertex="1" parent="1">
          <mxGeometry x="80" y="300" width="40" height="20" as="geometry" />
        </mxCell>
        <mxCell id="fkCTf-7TU1Zdt-uKhhQB-56" style="edgeStyle=orthogonalEdgeStyle;rounded=0;orthogonalLoop=1;jettySize=auto;html=1;exitX=1;exitY=0.5;exitDx=0;exitDy=0;" edge="1" parent="1" source="fkCTf-7TU1Zdt-uKhhQB-36" target="fkCTf-7TU1Zdt-uKhhQB-37">
          <mxGeometry relative="1" as="geometry" />
        </mxCell>
        <mxCell id="fkCTf-7TU1Zdt-uKhhQB-36" value="状态上下文" style="rounded=0;whiteSpace=wrap;html=1;fillColor=#fff2cc;strokeColor=#d6b656;" vertex="1" parent="1">
          <mxGeometry x="67.5" y="340" width="65" height="20" as="geometry" />
        </mxCell>
        <mxCell id="fkCTf-7TU1Zdt-uKhhQB-37" value="状态上下文" style="rounded=0;whiteSpace=wrap;html=1;fillColor=#fff2cc;strokeColor=#d6b656;" vertex="1" parent="1">
          <mxGeometry x="227.5" y="340" width="65" height="20" as="geometry" />
        </mxCell>
        <mxCell id="fkCTf-7TU1Zdt-uKhhQB-38" value="状态2" style="text;html=1;strokeColor=none;fillColor=none;align=center;verticalAlign=middle;whiteSpace=wrap;rounded=0;" vertex="1" parent="1">
          <mxGeometry x="240" y="300" width="40" height="20" as="geometry" />
        </mxCell>
        <mxCell id="fkCTf-7TU1Zdt-uKhhQB-39" value="状态3" style="text;html=1;strokeColor=none;fillColor=none;align=center;verticalAlign=middle;whiteSpace=wrap;rounded=0;" vertex="1" parent="1">
          <mxGeometry x="410" y="300" width="40" height="20" as="geometry" />
        </mxCell>
        <mxCell id="fkCTf-7TU1Zdt-uKhhQB-42" value="状态4" style="text;html=1;strokeColor=none;fillColor=none;align=center;verticalAlign=middle;whiteSpace=wrap;rounded=0;" vertex="1" parent="1">
          <mxGeometry x="570" y="300" width="40" height="20" as="geometry" />
        </mxCell>
        <mxCell id="fkCTf-7TU1Zdt-uKhhQB-43" value="状态上下文" style="rounded=0;whiteSpace=wrap;html=1;fillColor=#fff2cc;strokeColor=#d6b656;" vertex="1" parent="1">
          <mxGeometry x="397.5" y="340" width="65" height="20" as="geometry" />
        </mxCell>
        <mxCell id="fkCTf-7TU1Zdt-uKhhQB-44" value="状态上下文" style="rounded=0;whiteSpace=wrap;html=1;fillColor=#fff2cc;strokeColor=#d6b656;" vertex="1" parent="1">
          <mxGeometry x="557.5" y="340" width="65" height="20" as="geometry" />
        </mxCell>
        <mxCell id="fkCTf-7TU1Zdt-uKhhQB-48" value="状态上下文" style="rounded=0;whiteSpace=wrap;html=1;fillColor=#fff2cc;strokeColor=#d6b656;" vertex="1" parent="1">
          <mxGeometry x="567.5" y="460" width="65" height="20" as="geometry" />
        </mxCell>
        <mxCell id="fkCTf-7TU1Zdt-uKhhQB-49" value="状态5" style="text;html=1;strokeColor=none;fillColor=none;align=center;verticalAlign=middle;whiteSpace=wrap;rounded=0;" vertex="1" parent="1">
          <mxGeometry x="580" y="420" width="40" height="20" as="geometry" />
        </mxCell>
        <mxCell id="fkCTf-7TU1Zdt-uKhhQB-51" value="动作1" style="text;html=1;strokeColor=none;fillColor=none;align=center;verticalAlign=middle;whiteSpace=wrap;rounded=0;" vertex="1" parent="1">
          <mxGeometry x="160" y="310" width="40" height="20" as="geometry" />
        </mxCell>
        <mxCell id="fkCTf-7TU1Zdt-uKhhQB-52" value="动作2" style="text;html=1;strokeColor=none;fillColor=none;align=center;verticalAlign=middle;whiteSpace=wrap;rounded=0;" vertex="1" parent="1">
          <mxGeometry x="320" y="310" width="40" height="20" as="geometry" />
        </mxCell>
        <mxCell id="fkCTf-7TU1Zdt-uKhhQB-54" value="动作3" style="text;html=1;strokeColor=none;fillColor=none;align=center;verticalAlign=middle;whiteSpace=wrap;rounded=0;" vertex="1" parent="1">
          <mxGeometry x="490" y="310" width="40" height="20" as="geometry" />
        </mxCell>
        <mxCell id="fkCTf-7TU1Zdt-uKhhQB-57" value="状态流转" style="text;html=1;strokeColor=none;fillColor=none;align=center;verticalAlign=middle;whiteSpace=wrap;rounded=0;" vertex="1" parent="1">
          <mxGeometry x="135" y="350" width="90" height="30" as="geometry" />
        </mxCell>
      </root>
    </mxGraphModel>
  </diagram>
</mxfile>
